<svg xmlns="http://www.w3.org/2000/svg" viewBox="0 0 149.89 149.2"><defs><style>.cls-1{fill:#c9151f;}.cls-2{fill:#fff;}</style></defs><title>logo</title><g id="Layer_2" data-name="Layer 2"><g id="Layer_1-2" data-name="Layer 1"><rect class="cls-1" width="149.89" height="149.2"/><path class="cls-2" d="M114.4,73.31c-1.4,0-2.39-1.2-2.39-3a5.39,5.39,0,0,1,1.22-3.43c.41.69.89,1.45,1.45,2.31l1.93,2.67a2.47,2.47,0,0,1-2.21,1.48Zm3.73-1.4a10.53,10.53,0,0,0,.79-4.27V67h-1.4a13.59,13.59,0,0,1-.38,3.51l-1-1.38c-1.83-2.89-3.38-5.36-3.38-7.62,0-1.47.63-2.36,1.7-2.36s1.8,1,1.8,3.23h1.45V61.8c0-2.42-1.32-3.94-3.25-3.94a3.09,3.09,0,0,0-3.2,3.43,8.89,8.89,0,0,0,1.27,4.42,7,7,0,0,0-2,4.8c0,2.44,1.5,4.07,3.71,4.07a3.92,3.92,0,0,0,3.2-1.55l1,1.34h1.42l-1.73-2.46Z"/><path class="cls-2" d="M54.5,63v-.79c0-1.63-.76-2.26-1.88-2.26H52v5.33h.66c1.12,0,1.88-.66,1.88-2.28Zm.61,11.4-1.93-7.31H52v7.31H49.78V58.11h3.07A3.55,3.55,0,0,1,56.69,62v1.11a3.65,3.65,0,0,1-1.6,3.31l2.21,7.92Z"/><polygon class="cls-2" points="60.41 58.11 60.41 74.37 62.59 74.37 62.59 58.11 60.41 58.11 60.41 58.11"/><path class="cls-2" d="M70.62,63V61.72c0-1.4-.45-2-1.27-2s-1.27.63-1.27,2v9c0,1.39.49,2,1.32,2s1.35-.64,1.35-2V67.06H69.43V65.25h3.35v4.91c0,3-1.42,4.44-3.38,4.44-2.21,0-3.5-1.42-3.5-4.44V62.33c0-3,1.27-4.44,3.45-4.44s3.48,1.54,3.48,4.36L70.62,63Z"/><polygon class="cls-2" points="82.63 58.11 82.63 74.37 80.45 74.37 80.45 67.06 77.78 67.06 77.78 74.37 75.59 74.37 75.59 58.11 77.78 58.11 77.78 65.25 80.45 65.25 80.45 58.11 82.63 58.11 82.63 58.11"/><polygon class="cls-2" points="91.73 59.92 89.37 59.92 89.37 74.37 87.19 74.37 87.19 59.92 84.85 59.92 84.85 58.11 91.73 58.11 91.73 59.92 91.73 59.92"/><path class="cls-2" d="M96.79,57.89c2.24,0,3.48,1.54,3.48,4.36L98.06,63V61.72c0-1.4-.45-2-1.27-2s-1.29.66-1.29,1.88c0,3.68,4.72,4.8,4.72,9.17,0,2.41-1.19,3.86-3.4,3.86s-3.48-1.55-3.48-4.37l2.21-.71v1.25c0,1.39.43,2,1.27,2S98,72.21,98,71c0-3.56-4.73-4.7-4.73-9.2,0-2.28,1.25-3.88,3.48-3.88Z"/><path class="cls-2" d="M52.78,85.16c2.23,0,3.48,1.55,3.48,4.37l-2.21.71V89c0-1.39-.46-2-1.27-2s-1.3.66-1.3,1.88c0,3.68,4.73,4.8,4.73,9.17,0,2.41-1.2,3.86-3.41,3.86s-3.48-1.55-3.48-4.37l2.21-.71V98c0,1.39.43,2,1.27,2S54,99.48,54,98.24c0-3.56-4.73-4.7-4.73-9.2,0-2.28,1.25-3.88,3.49-3.88Z"/><polygon class="cls-2" points="61.39 87.19 61.39 92.52 64.31 92.52 64.31 94.33 61.39 94.33 61.39 99.84 64.82 99.84 64.82 101.64 59.2 101.64 59.2 85.39 64.82 85.39 64.82 87.19 61.39 87.19 61.39 87.19"/><path class="cls-2" d="M70.74,85.16c2.26,0,3.48,1.55,3.48,4.37L72,90.24V89c0-1.39-.46-2-1.27-2s-1.27.64-1.27,2V98c0,1.39.46,2,1.27,2S72,99.43,72,98V96.79l2.21.71c0,2.82-1.22,4.37-3.48,4.37s-3.45-1.42-3.45-4.44V89.6c0-3,1.27-4.44,3.45-4.44Z"/><path class="cls-2" d="M77,85.39h2.19V98c0,1.39.45,2,1.27,2s1.27-.64,1.27-2V85.39h2.18v12c0,3-1.27,4.44-3.45,4.44S77,100.45,77,97.43v-12Z"/><path class="cls-2" d="M91.86,90.24v-.79c0-1.63-.77-2.26-1.88-2.26h-.66v5.33H90c1.11,0,1.88-.66,1.88-2.28Zm.61,11.4-1.94-7.31H89.32v7.31H87.13V85.39H90.2A3.54,3.54,0,0,1,94,89.3v1.12a3.65,3.65,0,0,1-1.6,3.3l2.21,7.92Z"/><polygon class="cls-2" points="97.69 85.39 97.69 101.64 99.88 101.64 99.88 85.39 97.69 85.39 97.69 85.39"/><polygon class="cls-2" points="109.57 87.19 107.21 87.19 107.21 101.64 105.02 101.64 105.02 87.19 102.69 87.19 102.69 85.39 109.57 85.39 109.57 87.19 109.57 87.19"/><path class="cls-2" d="M119,85.39a94.11,94.11,0,0,1-2.72,10.18v6.07h-2.18V95.57a98.74,98.74,0,0,1-2.7-10.18h2.19c.51,2.94,1.06,5.38,1.62,7.82.54-2.44,1.1-4.88,1.6-7.82Z"/><polygon class="cls-2" points="45.7 112.68 45.7 124.81 47.33 124.81 47.33 112.68 45.7 112.68 45.7 112.68"/><polygon class="cls-2" points="49.45 112.68 50.76 112.68 53.15 120.87 53.15 112.68 54.68 112.68 54.68 124.81 53.15 124.81 51.01 118.05 51.01 124.81 49.45 124.81 49.45 112.68 49.45 112.68"/><polygon class="cls-2" points="61.44 114.03 59.68 114.03 59.68 124.81 58.05 124.81 58.05 114.03 56.31 114.03 56.31 112.68 61.44 112.68 61.44 114.03 61.44 114.03"/><polygon class="cls-2" points="64.68 114.03 64.68 118.01 66.86 118.01 66.86 119.35 64.68 119.35 64.68 123.47 67.24 123.47 67.24 124.81 63.05 124.81 63.05 112.68 67.24 112.68 67.24 114.03 64.68 114.03 64.68 114.03"/><path class="cls-2" d="M72.48,116.3v-.58c0-1.22-.57-1.69-1.4-1.69h-.49v4h.49c.83,0,1.4-.49,1.4-1.71Zm.46,8.51-1.44-5.46h-.91v5.46H69V112.68h2.29a2.64,2.64,0,0,1,2.86,2.92v.84a2.72,2.72,0,0,1-1.19,2.46l1.65,5.91Z"/><polygon class="cls-2" points="76.16 112.68 77.47 112.68 79.86 120.87 79.86 112.68 81.39 112.68 81.39 124.81 79.86 124.81 77.72 118.05 77.72 124.81 76.16 124.81 76.16 112.68 76.16 112.68"/><path class="cls-2" d="M86.67,120.19c-.22-2.37-.49-4.83-.68-6.16h-.25c-.17,1.33-.43,3.79-.66,6.16Zm.14,1.32H85c-.12,1.27-.21,2.43-.27,3.3H83.05c.34-3.86.86-8.58,1.5-12.13h2.63c.67,3.55,1.16,8.27,1.52,12.13H87.07c-.06-.87-.15-2-.26-3.3Z"/><polygon class="cls-2" points="94.54 114.03 92.78 114.03 92.78 124.81 91.15 124.81 91.15 114.03 89.4 114.03 89.4 112.68 94.54 112.68 94.54 114.03 94.54 114.03"/><path class="cls-2" d="M102.3,113.86c-.6,0-1,.47-1,1.51v6.75c0,1,.35,1.52,1,1.52s1-.48,1-1.52v-6.75c0-1-.34-1.51-1-1.51Zm0-1.35c1.63,0,2.58,1.06,2.58,3.32v5.84c0,2.25-.95,3.31-2.58,3.31s-2.58-1.06-2.58-3.31v-5.84c0-2.26,1-3.32,2.58-3.32Z"/><polygon class="cls-2" points="106.76 112.68 108.07 112.68 110.46 120.87 110.46 112.68 111.99 112.68 111.99 124.81 110.46 124.81 108.31 118.05 108.31 124.81 106.76 124.81 106.76 112.68 106.76 112.68"/><path class="cls-2" d="M117.27,120.19c-.23-2.37-.49-4.83-.68-6.16h-.25c-.17,1.33-.43,3.79-.66,6.16Zm.13,1.32h-1.85c-.12,1.27-.21,2.43-.27,3.3h-1.63c.34-3.86.86-8.58,1.5-12.13h2.63c.67,3.55,1.16,8.27,1.52,12.13h-1.63c-.06-.87-.15-2-.27-3.3Z"/><polygon class="cls-2" points="121.05 112.68 122.67 112.68 122.67 123.47 125.52 123.47 125.52 124.81 121.05 124.81 121.05 112.68 121.05 112.68"/><polygon class="cls-2" points="96.05 112.68 96.05 124.81 97.68 124.81 97.68 112.68 96.05 112.68 96.05 112.68"/><polygon class="cls-2" points="26.31 26.43 104.69 26.43 104.69 44.91 104.69 51.52 104.69 53.7 104.69 59.92 104.69 78.79 49.37 78.79 49.37 80.97 104.69 80.97 106.87 80.97 106.87 78.79 106.87 59.92 106.87 53.7 106.87 51.52 106.87 44.91 106.87 26.43 106.87 24.25 104.69 24.25 26.31 24.25 24.12 24.25 24.12 26.43 24.12 78.79 24.12 80.97 26.31 80.97 38.36 80.97 38.36 78.79 26.31 78.79 26.31 26.43 26.31 26.43"/><polygon class="cls-2" points="123.33 51.52 111.28 51.52 111.28 53.7 123.33 53.7 123.33 106.06 44.95 106.06 44.95 87.38 44.95 87.38 44.95 72.38 44.95 72.38 44.95 53.7 100.27 53.7 100.27 51.52 44.95 51.52 42.77 51.52 42.77 53.7 42.77 72.38 42.77 72.38 42.77 87.38 42.77 87.38 42.77 106.06 42.77 108.24 44.95 108.24 123.33 108.24 125.52 108.24 125.52 106.06 125.52 53.7 125.52 51.52 123.33 51.52 123.33 51.52"/></g></g></svg>