<svg version="1.1" id="Lager_1" xmlns="http://www.w3.org/2000/svg" x="0" y="0" viewBox="0 0 716.6 107.7" xml:space="preserve"><style>.st0{fill:#ffcc03}</style><path d="M3.6 4.8h62.9v21.4H29.1v18.4h32.1V66H29.1v35.3H3.6V4.8zM97.3 97c-6.8-4-12-9.8-15.7-17.4-3.7-7.6-5.6-16.7-5.6-27 0-10.4 1.9-19.3 5.6-26.8 3.7-7.5 9-13.1 15.7-17 6.8-3.9 14.6-5.8 23.5-5.8s16.7 2 23.5 5.9c6.8 3.9 12 9.6 15.7 17 3.7 7.4 5.6 16.3 5.6 26.7 0 10.4-1.9 19.4-5.6 27-3.7 7.6-9 13.4-15.7 17.4-6.8 4-14.6 6-23.5 6s-16.7-2-23.5-6zm37.2-23.6c3.4-5.1 5-12 5-20.8 0-8.7-1.7-15.5-5-20.3-3.3-4.8-7.9-7.3-13.7-7.3-5.8 0-10.4 2.4-13.7 7.3-3.3 4.8-5 11.6-5 20.3 0 8.8 1.7 15.8 5 20.8 3.4 5.1 7.9 7.6 13.7 7.6 5.8 0 10.3-2.5 13.7-7.6zM231.8 101.2l-16.6-32.3h-9.8v32.3h-25.5V4.8h36.5c11.6 0 20.9 2.4 28 7.2 7.1 4.8 10.6 12.8 10.6 24 0 6.6-1.4 12.3-4.2 16.9-2.8 4.7-6.6 8.3-11.4 11l20.9 37.4h-28.5zm-26.4-52.5h9.2c5 0 8.9-1.1 11.5-3.3 2.6-2.2 3.9-5.3 3.9-9.5 0-4.1-1.3-6.9-3.8-8.5s-6.4-2.4-11.6-2.4h-9.2v23.7zM276.7 91.1c-6.6-7.9-9.9-20.1-9.9-36.5V4.8h25.5v52.8c0 8.5 1.1 14.5 3.4 18.1 2.3 3.6 6 5.3 11.1 5.3s8.9-1.8 11.3-5.4c2.4-3.6 3.6-9.6 3.6-18V4.8h24.6v49.9c0 16.5-3.2 28.7-9.6 36.6-6.4 7.9-16.4 11.8-29.8 11.8-13.6-.1-23.6-4-30.2-12zM361.2 4.8h27.3L403 44.3c.7 2 1.6 5 2.8 9.2l2.2 7.7h.6l2.2-7.7c1.2-4.2 2.1-7.2 2.8-9.2l13.9-39.5H455v96.5h-23.1V72.7c0-3.7.3-8.4.9-14.2.6-5.8 1.2-11.2 1.9-16.1l.4-4.2h-.6l-8 23.1-11.9 31.9H401l-11.9-31.9-7.7-23.1h-.6l.4 4.2c.7 4.9 1.3 10.3 1.9 16.1.6 5.8.9 10.5.9 14.2v28.5h-22.9V4.8z"/><path class="st0" d="M547.4 14.2c-6.9-3-15-4.5-23.4-4.5-24.5 0-44 16.8-44 43.4 0 26.6 20 43.4 44.3 43.4 7.8 0 16.7-1.4 23.8-4.7l2.2 5.8c-7.7 4-16.8 5.4-26.1 5.4-27.7 0-51.7-19-51.7-49.8 0-30 23.5-49.8 50.6-49.8 9.6 0 18.3 1.5 26.6 5.2l-2.3 5.6zm-3.9 10c-5.2-2.6-12.5-3.9-20.1-3.9-17.5 0-31 13.5-31 32.8 0 21.3 15.8 32.8 32.1 32.8 7.6 0 14-1.2 19.7-4.1l2.3 6.2c-7 3.3-14.5 4.4-21.9 4.4-19.5 0-39.8-13.3-39.8-39.2S504.6 14 524.3 14c7.2 0 14.6 1.4 21.5 4.3l-2.3 5.9zM577 101.2h-7.4V4.9h7.4v96.3zm4.9 0V4.9h7.4v96.3h-7.4zM644.1 101.2l-39-96.3h7.4l36.3 89.3h6.3l36.3-89.3h7.4l-39 96.3h-15.7zM617.7 4.9h8.1l26.3 68.3 26.3-68.3h8.1l-34.4 84.9-34.4-84.9zM686.5 89.5c0-9.3 4.4-13.7 13.5-13.7s13.5 4.4 13.5 13.7c0 9.3-4.4 13.7-13.5 13.7-9.1-.1-13.5-4.5-13.5-13.7zm13.5-7.6c-4.7 0-7.4 2.4-7.4 7.6 0 5.2 2.7 7.6 7.4 7.6s7.4-2.4 7.4-7.6c.1-5.3-2.6-7.6-7.4-7.6zm0 3.7c2.4 0 3.4 1.4 3.4 3.9 0 2.7-1 3.9-3.4 3.9s-3.4-1.4-3.4-3.9c.1-2.6 1.1-3.9 3.4-3.9z"/></svg>