<?xml version="1.0" encoding="utf-8"?>
<!-- Generator: Adobe Illustrator 25.4.1, SVG Export Plug-In . SVG Version: 6.00 Build 0)  -->
<svg version="1.1" id="Layer_1" xmlns="http://www.w3.org/2000/svg" xmlns:xlink="http://www.w3.org/1999/xlink" x="0px" y="0px"
	 viewBox="0 0 200 57.7" style="enable-background:new 0 0 200 57.7;" xml:space="preserve">
<style type="text/css">
	.st0{clip-path:url(#SVGID_00000182526669674755533810000011781935831517918114_);}
	.st1{fill-rule:evenodd;clip-rule:evenodd;fill:#D228F4;}
	.st2{fill-rule:evenodd;clip-rule:evenodd;fill:#411342;}
</style>
<g>
	<defs>
		<rect id="SVGID_1_" width="200" height="83"/>
	</defs>
	<clipPath id="SVGID_00000067948768926078044410000006172722496881484981_">
		<use xlink:href="#SVGID_1_"  style="overflow:visible;"/>
	</clipPath>
	<g style="clip-path:url(#SVGID_00000067948768926078044410000006172722496881484981_);">
		<path class="st1" d="M144.9,28.1h21.7v7.5h-21.7V28.1z M144.9,42.8h21.7v7.5h-21.7V42.8z"/>
		<path class="st2" d="M8.7,0C3.5,0,0,3.7,0,8.5c0,4.7,3.5,8.5,8.7,8.4c4,0,6.1-1.3,7.8-2.5V7.1H9.7v3.8h2.7v0.9
			c-0.3,0.3-1.3,0.8-3.1,0.8c-2.6,0-4.3-1.9-4.3-4.3S6.5,4.2,9,4.2c2,0,3.1,1,3.7,1.7L15.6,3C14.7,1.9,12.5,0,8.7,0z M18.3,0.3h4.7
			v12.3h4.7v4.1h-9.3V0.3z M37.3,0c-5.4,0-8.9,3.7-8.9,8.5c0,4.8,3.5,8.5,8.8,8.5c5.4,0,8.9-3.7,8.9-8.5C46.1,3.7,42.7,0,37.3,0z
			 M37.3,12.7c-2.4,0-4-1.8-4-4.3c0-2.4,1.6-4.2,4-4.2c2.4,0,4,1.8,4,4.2C41.3,10.9,39.7,12.7,37.3,12.7z M47.7,0.3h6.3
			c3.5,0,5.5,1.6,5.5,4.5c0,1.5-0.6,2.6-1.7,3.3c1.5,0.7,2.3,2,2.3,3.6c0,3.5-2.7,4.9-5.9,4.9h-6.5V0.3z M53.7,6.5
			c0.7,0,1.1-0.5,1.1-1.2c0-0.7-0.4-1.1-1.2-1.1h-1.3v2.3H53.7z M54,12.7c0.9,0,1.3-0.7,1.3-1.3c0-0.7-0.5-1.3-1.3-1.3h-1.7v2.7H54z
			 M65.2,16.7l0.9-3.1h5l1,3.1h4.7L71.1,0.3h-4.9l-5.7,16.3H65.2z M67.3,9.8l1.3-4.7L70,9.8H67.3z M78.1,0.3h4.7v12.3h4.7v4.1h-9.3
			V0.3z M103.3,0.3h-9.1h-0.1v16.3h4.7v-5.9h3.9V6.7h-3.9V4.4h4.5V0.3z M105.1,10.3V0.3h4.7v10c0,1.5,0.9,2.5,2.5,2.5
			c1.5,0,2.5-0.9,2.5-2.5v-10h4.7v9.9c0,3.9-2.5,6.7-7.1,6.7C107.6,16.9,105.1,14.2,105.1,10.3z M125.9,0.3h-4.7v16.3h4.5V7.5
			l5.4,9.1h4.6V0.3h-4.6v9.3L125.9,0.3z M137.6,0.3h5.3c5.3,0,8.7,3.1,8.7,8.2c0,5.1-3.5,8.2-8.7,8.2h-5.3V0.3z M142.9,12.7
			c2.4,0,4-1.4,4-4.3c0-2.9-1.6-4.3-4-4.3h-0.6v8.5H142.9z M166.4,0.3h-9.1v16.3h4.7v-5.9h3.9V6.7H162V4.4h4.4V0.3z M167.5,8.5
			c0-4.7,3.5-8.5,8.8-8.5c5.4,0,8.8,3.7,8.8,8.5c0,4.8-3.5,8.5-8.8,8.5C171,16.9,167.5,13.3,167.5,8.5z M172.4,8.5
			c0,2.5,1.6,4.3,4,4.3c2.4,0,4-1.8,4-4.3c0-2.4-1.6-4.2-4-4.2C174,4.3,172.4,6.1,172.4,8.5z M192.4,0.3h-5.8v16.3h4.7v-5.8h0.9
			l2.7,5.8h5.1l-3.7-6.9c1.4-0.9,2.1-2.6,2.1-4.3C198.4,2.3,196.5,0.3,192.4,0.3z M193.7,5.7c0,0.9-0.5,1.5-1.6,1.5h-0.8V4.3h0.8
			C193.1,4.3,193.7,4.7,193.7,5.7z M26.5,34.5l-6,23.3H10.3L0.6,20.7h9.7l5.6,26.1l6.5-26.1h8.1l6.5,26.1l5.6-26.1h9.7l-9.6,37H32.5
			L26.5,34.5z M70.4,20C58.7,20,51,28.4,51,39.1c0,10.9,7.7,19.3,19.4,19.3c11.7,0,19.4-8.4,19.4-19.3C89.8,28.4,82.1,20,70.4,20z
			 M70.4,49.9c-5.9,0-10-4.5-10-10.8c0-6.1,4.1-10.7,10-10.7c5.9,0,10,4.6,10,10.7C80.4,45.4,76.3,49.9,70.4,49.9z M176.9,35v22.7
			H168v-37h9.2l13.5,23v-23h8.9v37h-9L176.9,35z M113.2,44.1l9.3-23.5h11.7v37.1h-8.7V33.5l-6.6,17.2l-2.7,7.1h-6l-3.5-9.1
			l-5.8-15.1v24.3h-8.7V20.7H104L113.2,44.1z"/>
	</g>
</g>
</svg>
