<svg width="131" height="39" viewBox="0 0 131 39" fill="none" xmlns="http://www.w3.org/2000/svg">
<g clip-path="url(#clip0)">
<path fill-rule="evenodd" clip-rule="evenodd" d="M94.8877 18.4274H109.079V23.318H94.8877V18.4274ZM94.8877 28.034H109.079V32.9247H94.8877V28.034Z" fill="#D228F4"/>
<path fill-rule="evenodd" clip-rule="evenodd" d="M0 5.54567C0 2.44533 2.27067 0 5.72033 0C8.20933 0 9.60667 1.22267 10.218 1.965L8.29667 3.88633C7.90367 3.406 7.205 2.751 5.895 2.751C4.27933 2.751 3.18767 3.93 3.18767 5.502C3.18767 7.074 4.323 8.29667 6.026 8.29667C7.205 8.29667 7.86 7.991 8.07833 7.77267V7.16133H6.33167V4.67233H10.8293V9.38833C9.694 10.1743 8.34033 11.0477 5.72033 11.0477C2.27067 11.0913 0 8.646 0 5.54567ZM11.9647 0.218333H15.0213V8.253H18.078V10.9167H11.9647V0.218333ZM24.4097 0C20.8727 0 18.602 2.44533 18.602 5.54567C18.602 8.68967 20.8727 11.0913 24.366 11.135C27.903 11.135 30.1737 8.68967 30.1737 5.54567C30.1737 2.44533 27.9467 0 24.4097 0ZM24.4097 8.34033C22.8377 8.34033 21.7897 7.16133 21.7897 5.54567C21.7897 3.97367 22.8377 2.79467 24.4097 2.79467C25.9817 2.79467 27.0297 3.97367 27.0297 5.54567C27.0297 7.16133 25.9817 8.34033 24.4097 8.34033ZM31.2653 0.218333H35.4137C37.6843 0.218333 39.038 1.26633 39.038 3.144C39.038 4.10467 38.645 4.847 37.9027 5.32733C38.907 5.80767 39.3873 6.63733 39.3873 7.68533C39.3873 9.956 37.6407 10.9167 35.501 10.9167H31.2653V0.218333ZM35.1953 4.23567C35.6757 4.23567 35.9377 3.88633 35.9377 3.44967C35.9377 3.013 35.6757 2.70733 35.1517 2.70733H34.2783V4.23567H35.1953ZM35.37 8.34033C35.9377 8.34033 36.2433 7.86 36.2433 7.467C36.2433 7.03033 35.9377 6.59367 35.4137 6.59367H34.2783V8.34033H35.37ZM42.706 10.9167L43.3173 8.86433H46.5923L47.2473 10.9167H50.304L46.5923 0.218333H43.361L39.6493 10.9167H42.706ZM44.0596 6.419L44.933 3.36233L45.85 6.419H44.0596ZM51.1774 0.218333H54.234V8.253H57.2907V10.9167H51.1774V0.218333ZM67.6833 0.218333H61.7446H61.701V10.9167H64.7576V7.03033H67.2903V4.36667H64.7576V2.882H67.6833V0.218333ZM68.8187 6.72467V0.218333H71.8754V6.76833C71.8754 7.77267 72.4867 8.384 73.491 8.384C74.4954 8.384 75.1067 7.77267 75.1067 6.76833V0.218333H78.1634V6.72467C78.1634 9.301 76.504 11.135 73.491 11.135C70.478 11.0913 68.8187 9.301 68.8187 6.72467ZM82.4427 0.218333H79.386V10.9167H82.3554V4.93433L85.8924 10.9167H88.9054V0.218333H85.8924V6.288L82.4427 0.218333ZM90.128 0.218333H93.6213C97.071 0.218333 99.3417 2.227 99.3417 5.58933C99.3417 8.908 97.071 10.9603 93.6213 10.9603H90.128V0.218333ZM93.5777 8.34033C95.1497 8.34033 96.1977 7.42333 96.1977 5.54567C96.1977 3.668 95.1497 2.751 93.5777 2.751H93.1846V8.34033H93.5777ZM108.992 0.218333H103.053V10.9167H106.11V7.03033H108.643V4.36667H106.11V2.882H108.992V0.218333ZM109.734 5.54567C109.734 2.44533 112.005 0 115.498 0C119.035 0 121.262 2.44533 121.262 5.54567C121.262 8.68967 118.992 11.135 115.498 11.135C112.005 11.0913 109.734 8.68967 109.734 5.54567ZM112.922 5.54567C112.922 7.16133 113.97 8.34033 115.542 8.34033C117.114 8.34033 118.162 7.16133 118.162 5.54567C118.162 3.97367 117.114 2.79467 115.542 2.79467C113.97 2.79467 112.922 3.97367 112.922 5.54567ZM126.022 0.218333H122.223V10.9167H125.28V7.11767H125.847L127.638 10.9167H131L128.555 6.419C129.472 5.85133 129.952 4.716 129.952 3.58067C129.952 1.48467 128.686 0.218333 126.022 0.218333ZM126.852 3.71167C126.852 4.27933 126.502 4.67233 125.804 4.67233H125.28V2.79467H125.804C126.502 2.79467 126.852 3.10033 126.852 3.71167ZM17.3356 22.5757L13.4056 37.8153H6.72462L0.392957 13.5367H6.72462L10.3926 30.6103L14.672 13.5367H19.9993L24.2786 30.6103L27.9466 13.5367H34.2783L27.9903 37.7717H21.2656L17.3356 22.5757ZM46.112 13.1C38.4703 13.1 33.405 18.602 33.405 25.6323C33.405 32.75 38.4703 38.252 46.112 38.252C53.7536 38.252 58.819 32.75 58.819 25.6323C58.819 18.602 53.7536 13.1 46.112 13.1ZM46.112 32.7063C42.2693 32.7063 39.562 29.737 39.562 25.6323C39.562 21.6587 42.2256 18.6457 46.112 18.6457C49.9983 18.6457 52.662 21.6587 52.662 25.6323C52.662 29.737 49.9546 32.7063 46.112 32.7063ZM115.848 22.925V37.7717H110.04V13.5367H116.066L124.887 28.6017V13.5367H130.694V37.7717H124.799L115.848 22.925ZM74.146 28.9073L80.2156 13.5367H87.901V37.8153H82.2243V21.9207L77.9013 33.1867L76.1546 37.8153H72.2246L69.9103 31.833L66.1113 21.9207V37.8153H60.4346V13.5367H68.12L74.146 28.9073Z" fill="#5A5A5C"/>
</g>
<defs>
<clipPath id="clip0">
<rect width="131" height="38.4267" fill="white"/>
</clipPath>
</defs>
</svg>
