<svg width="969" height="456" viewBox="0 0 969 456" fill="none" xmlns="http://www.w3.org/2000/svg">
<g clip-path="url(#clip0_1085_6138)">
<rect width="969" height="456" fill="url(#paint0_linear_1085_6138)"/>
<g clip-path="url(#clip1_1085_6138)">
<path d="M745.358 41.9023V413.146C745.358 420.875 739.093 427.141 731.364 427.141H248.788C241.059 427.141 234.794 420.875 234.794 413.146V41.9023C234.794 34.1735 241.059 27.9082 248.788 27.9082H731.364C739.093 27.9082 745.358 34.1736 745.358 41.9023Z" fill="white" stroke="#C2D5FF" stroke-width="1.81567" stroke-miterlimit="10"/>
<path d="M745.358 41.9023V55.8963H234.794V41.9023C234.794 34.1735 241.059 27.9082 248.788 27.9082H731.364C739.093 27.9082 745.358 34.1735 745.358 41.9023Z" fill="#3F51B5"/>
<path d="M729.267 38.7447L727.854 37.332L725.252 39.9339L722.65 37.332L721.238 38.7447L723.84 41.3466L721.238 43.9486L722.65 45.3612L725.252 42.7592L727.854 45.3612L729.267 43.9486L726.665 41.3466L729.267 38.7447Z" fill="white"/>
<path d="M709.69 41.1094V37.3857H705.967L707.122 38.5412L703.384 42.2798L702.228 41.1243V44.8479H705.952L704.796 43.6924L708.535 39.9538L709.69 41.1094Z" fill="white"/>
<path d="M683.462 45.2088H690.404V43.2109H683.462" fill="white"/>
<path d="M244.266 99.2031H734.809" stroke="#C2D5FF" stroke-width="1.86481" stroke-miterlimit="10" stroke-linecap="round" stroke-linejoin="round"/>
<path d="M244.266 141.253H734.809" stroke="#C2D5FF" stroke-width="1.86481" stroke-miterlimit="10" stroke-linecap="round" stroke-linejoin="round"/>
<path d="M244.266 356.506H734.809" stroke="#C2D5FF" stroke-width="1.86481" stroke-miterlimit="10" stroke-linecap="round" stroke-linejoin="round"/>
<path d="M377.735 381.575V400.964C377.735 405.865 373.764 409.836 368.893 409.836H262.6C257.699 409.836 253.728 405.865 253.728 400.964V381.575C253.728 376.673 257.699 372.734 262.6 372.734H368.893C373.764 372.734 377.735 376.673 377.735 381.575Z" fill="#C2D5FF" stroke="white" stroke-width="2" stroke-miterlimit="10"/>
<path d="M377.735 381.575V400.964C377.735 405.865 373.764 409.836 368.893 409.836H331.791V372.734H368.893C373.764 372.734 377.735 376.673 377.735 381.575Z" fill="#C2D5FF" stroke="white" stroke-width="2" stroke-miterlimit="10"/>
<path d="M685.875 387.024C686.572 387.024 687.136 386.46 687.136 385.763C687.136 385.066 686.572 384.502 685.875 384.502C685.179 384.502 684.614 385.066 684.614 385.763C684.614 386.46 685.179 387.024 685.875 387.024Z" fill="#C2D5FF"/>
<path d="M685.875 394.208C686.572 394.208 687.136 393.643 687.136 392.946C687.136 392.25 686.572 391.685 685.875 391.685C685.179 391.685 684.614 392.25 684.614 392.946C684.614 393.643 685.179 394.208 685.875 394.208Z" fill="#C2D5FF"/>
<path d="M685.875 401.39C686.572 401.39 687.136 400.825 687.136 400.129C687.136 399.432 686.572 398.868 685.875 398.868C685.179 398.868 684.614 399.432 684.614 400.129C684.614 400.825 685.179 401.39 685.875 401.39Z" fill="#C2D5FF"/>
<path d="M466.62 86.4809H260.905C258.194 86.4809 255.997 84.2836 255.997 81.573V81.2224C255.997 78.5118 258.194 76.3145 260.905 76.3145H466.62C469.33 76.3145 471.528 78.5118 471.528 81.2224V81.573C471.528 84.2836 469.33 86.4809 466.62 86.4809Z" fill="#C2D5FF"/>
<path d="M428.538 128.229H260.905C258.194 128.229 255.997 126.032 255.997 123.321V122.97C255.997 120.26 258.194 118.062 260.905 118.062H428.538C431.248 118.062 433.446 120.26 433.446 122.97V123.321C433.446 126.032 431.248 128.229 428.538 128.229Z" fill="#C2D5FF"/>
<path d="M412.902 403.845C418.596 403.845 423.211 399.23 423.211 393.536C423.211 387.843 418.596 383.227 412.902 383.227C407.209 383.227 402.593 387.843 402.593 393.536C402.593 399.23 407.209 403.845 412.902 403.845Z" fill="#C2D5FF"/>
<path d="M455.808 403.845C461.501 403.845 466.117 399.23 466.117 393.536C466.117 387.843 461.501 383.227 455.808 383.227C450.114 383.227 445.499 387.843 445.499 393.536C445.499 399.23 450.114 403.845 455.808 403.845Z" fill="#C2D5FF"/>
<path d="M490.698 403.845C496.391 403.845 501.007 399.23 501.007 393.536C501.007 387.843 496.391 383.227 490.698 383.227C485.004 383.227 480.389 387.843 480.389 393.536C480.389 399.23 485.004 403.845 490.698 403.845Z" fill="#C2D5FF"/>
<path d="M530.301 403.845C535.994 403.845 540.61 399.23 540.61 393.536C540.61 387.843 535.994 383.227 530.301 383.227C524.607 383.227 519.992 387.843 519.992 393.536C519.992 399.23 524.607 403.845 530.301 403.845Z" fill="#C2D5FF"/>
<path d="M569.826 403.845C575.52 403.845 580.135 399.23 580.135 393.536C580.135 387.843 575.52 383.227 569.826 383.227C564.133 383.227 559.517 387.843 559.517 393.536C559.517 399.23 564.133 403.845 569.826 403.845Z" fill="#C2D5FF"/>
<path d="M609.033 403.845C614.726 403.845 619.342 399.23 619.342 393.536C619.342 387.843 614.726 383.227 609.033 383.227C603.34 383.227 598.724 387.843 598.724 393.536C598.724 399.23 603.34 403.845 609.033 403.845Z" fill="#C2D5FF"/>
<path d="M719.873 403.845C725.567 403.845 730.182 399.23 730.182 393.536C730.182 387.843 725.567 383.227 719.873 383.227C714.18 383.227 709.564 387.843 709.564 393.536C709.564 399.23 714.18 403.845 719.873 403.845Z" fill="#C2D5FF"/>
<path d="M380.642 427.317L381.528 428.715" stroke="white" stroke-width="0.5" stroke-miterlimit="10" stroke-linecap="round" stroke-linejoin="round"/>
<path d="M122.606 64.9082H56.6057V92.9082H122.606V64.9082Z" fill="#EAEEFB"/>
<path d="M169.606 104.908H103.606V132.909H169.606V104.908Z" fill="#EAEEFB"/>
<path d="M846.106 225.72H912.106V197.72H846.106V225.72Z" fill="#EAEEFB"/>
<path d="M799.106 265.72H865.106V237.72H799.106V265.72Z" fill="#EAEEFB"/>
<path opacity="0.2" d="M652.151 336.464H331.383C325.535 336.464 320.794 331.724 320.794 325.876V287.374C320.794 281.527 325.535 276.786 331.383 276.786H652.151C657.999 276.786 662.739 281.527 662.739 287.374V325.876C662.739 331.724 657.999 336.464 652.151 336.464Z" fill="#3250B8"/>
<path d="M646.554 328.362H325.786C319.938 328.362 315.198 323.621 315.198 317.774V279.272C315.198 273.424 319.938 268.684 325.786 268.684H646.554C652.402 268.684 657.142 273.424 657.142 279.272V317.774C657.142 323.621 652.402 328.362 646.554 328.362Z" fill="white" stroke="#3250B8" stroke-width="2" stroke-miterlimit="10"/>
<path d="M603.272 306.738H348.344C344.221 306.738 340.88 302.707 340.88 297.733V297.09C340.88 292.117 344.221 288.085 348.344 288.085H603.272C607.393 288.085 610.736 292.117 610.736 297.09V297.733C610.736 302.707 607.393 306.738 603.272 306.738Z" fill="#C2D5FF"/>
<path d="M344.048 242.392L266.923 271.077C263.911 272.198 262.378 275.547 263.498 278.559L279.721 322.175C280.841 325.187 284.191 326.721 287.203 325.6L364.327 296.915C367.339 295.795 368.872 292.445 367.752 289.433L351.53 245.817C350.409 242.805 347.06 241.272 344.048 242.392Z" fill="#FFC004"/>
<path d="M270.317 274.884L305.575 287.733L309.521 289.171C314.872 291.12 320.845 288.898 323.622 283.927L325.67 280.259L343.961 247.493" stroke="white" stroke-width="2" stroke-linecap="round" stroke-linejoin="round"/>
<path d="M360.929 293.107L325.672 280.258" stroke="white" stroke-width="2" stroke-linecap="round" stroke-linejoin="round"/>
<path d="M305.577 287.732L287.283 320.499" stroke="white" stroke-width="2" stroke-linecap="round" stroke-linejoin="round"/>
<path d="M261.573 311.812C260.091 308.479 260.015 305.127 261.344 301.758C262.674 298.389 265.006 295.963 268.342 294.48C271.677 292.997 275.036 292.878 278.42 294.123C281.803 295.367 284.232 297.646 285.705 300.958L295.583 323.17C296.567 325.382 296.722 327.904 295.9 330.182C294.977 332.742 293.287 334.568 290.832 335.659C288.515 336.69 285.826 336.73 283.473 335.785C281.151 334.852 279.479 333.235 278.456 330.935L269.396 310.562C268.756 309.124 268.709 307.688 269.253 306.253C269.798 304.818 270.783 303.783 272.208 303.149C273.576 302.541 275.093 302.509 276.481 303.07C277.931 303.655 278.98 304.677 279.628 306.134L288.047 325.063C288.376 325.804 288.043 326.671 287.302 327C286.562 327.33 285.695 326.996 285.365 326.256L276.974 307.387C276.684 306.734 276.186 306.173 275.537 305.875C274.829 305.55 274.121 305.545 273.413 305.86C272.768 306.146 272.32 306.602 272.067 307.226C271.815 307.851 271.9 308.895 272.174 309.511L281.171 329.741C281.896 331.37 283.075 332.495 284.71 333.115C286.345 333.735 287.985 333.679 289.628 332.948C291.253 332.226 292.39 331.045 293.041 329.406C293.691 327.767 293.653 326.131 292.927 324.499L282.953 302.071C281.818 299.518 279.949 297.778 277.345 296.851C274.742 295.923 272.145 296.035 269.553 297.188C266.936 298.352 265.118 300.223 264.098 302.803C263.079 305.383 263.144 307.966 264.294 310.553L273.591 331.458C273.928 332.214 273.587 333.1 272.831 333.436C272.074 333.773 271.188 333.432 270.852 332.676L261.573 311.812Z" fill="#3250B8"/>
<path d="M315.491 274.958C317.577 274.249 319.516 274.021 321.308 274.275C323.099 274.529 324.638 275.22 325.924 276.348C327.228 277.469 328.192 278.947 328.816 280.782C329.317 282.257 329.53 283.739 329.454 285.23C329.397 286.714 329.02 288.025 328.324 289.165C327.628 290.304 326.614 291.1 325.283 291.553C324.348 291.87 323.528 291.938 322.825 291.756C322.115 291.556 321.556 291.124 321.15 290.459C320.867 291.338 320.382 292.125 319.695 292.82C319.002 293.497 318.197 293.991 317.28 294.303C315.913 294.767 314.705 294.726 313.657 294.18C312.602 293.615 311.834 292.622 311.351 291.202C310.892 289.853 310.743 288.499 310.903 287.14C311.064 285.782 311.519 284.584 312.27 283.546C313.015 282.49 314.008 281.752 315.249 281.33C316.795 280.804 318.04 280.983 318.982 281.867L318.748 280.381L321.905 279.309L323.112 287.024C323.174 287.384 323.254 287.708 323.352 287.996C323.499 288.427 323.699 288.72 323.952 288.875C324.205 289.03 324.548 289.034 324.979 288.887C325.627 288.667 326.063 288.178 326.286 287.42C326.528 286.655 326.601 285.778 326.505 284.787C326.427 283.791 326.232 282.834 325.921 281.916C325.181 279.74 323.944 278.285 322.21 277.55C320.469 276.797 318.385 276.833 315.957 277.658C313.889 278.361 312.189 279.501 310.859 281.076C309.522 282.634 308.671 284.438 308.304 286.489C307.95 288.515 308.13 290.581 308.845 292.685C309.603 294.915 310.844 296.41 312.566 297.169C314.306 297.921 316.391 297.885 318.819 297.06C320.563 296.467 321.994 295.63 323.111 294.548L324.494 296.846C323.03 298.147 321.255 299.151 319.169 299.86C317.154 300.545 315.26 300.757 313.487 300.497C311.719 300.255 310.183 299.573 308.879 298.452C307.575 297.33 306.608 295.843 305.979 293.99C305.08 291.346 304.876 288.738 305.365 286.164C305.873 283.584 307.004 281.303 308.758 279.323C310.531 277.336 312.775 275.881 315.491 274.958ZM317.513 291.093C318.161 290.873 318.69 290.483 319.101 289.922C319.513 289.361 319.764 288.713 319.856 287.98C319.966 287.24 319.898 286.511 319.654 285.792C319.397 285.036 318.983 284.495 318.41 284.168C317.837 283.841 317.182 283.803 316.445 284.053C315.779 284.279 315.265 284.685 314.902 285.27C314.533 285.837 314.315 286.493 314.247 287.238C314.197 287.977 314.295 288.706 314.539 289.426C314.79 290.163 315.168 290.687 315.675 290.996C316.181 291.305 316.794 291.338 317.513 291.093Z" fill="#3F51B5"/>
<path d="M135.516 376.558C135.516 376.558 126.766 344.076 122.564 307.97" stroke="#00C7B6" stroke-linecap="round" stroke-linejoin="round"/>
<path d="M122.718 309.562C122.718 309.562 119.666 307.225 118.679 299.318C117.692 291.41 124.522 290.87 124.861 298.724C125.2 306.578 122.716 309.558 122.716 309.558L122.718 309.562Z" fill="#00C7B6"/>
<path d="M124.354 321.472C124.354 321.472 122.97 318.202 126.593 311.105C130.217 304.012 136.171 307.397 132.044 314.088C127.917 320.779 124.354 321.472 124.354 321.472Z" fill="#00C7B6"/>
<path d="M126.324 333.407C126.324 333.407 124.941 330.137 128.563 323.04C132.188 315.947 138.141 319.332 134.014 326.022C129.887 332.713 126.324 333.407 126.324 333.407Z" fill="#00C7B6"/>
<path d="M128.448 345.331C128.448 345.331 127.065 342.061 130.687 334.965C134.312 327.872 140.265 331.257 136.138 337.947C132.011 344.638 128.448 345.331 128.448 345.331Z" fill="#00C7B6"/>
<path d="M130.758 356.069C130.758 356.069 129.374 352.799 132.997 345.702C136.621 338.609 142.575 341.994 138.448 348.685C134.321 355.375 130.758 356.069 130.758 356.069Z" fill="#00C7B6"/>
<path d="M124.354 321.472C124.354 321.472 124.618 317.93 118.914 312.369C113.21 306.807 108.653 311.921 114.704 316.939C120.758 321.954 124.35 321.474 124.35 321.474L124.354 321.472Z" fill="#00C7B6"/>
<path d="M126.306 333.408C126.306 333.408 126.57 329.867 120.866 324.305C115.162 318.743 110.606 323.858 116.657 328.875C122.711 333.89 126.303 333.411 126.303 333.411L126.306 333.408Z" fill="#00C7B6"/>
<path d="M128.509 345.351C128.509 345.351 128.773 341.809 123.069 336.248C117.365 330.686 112.809 335.8 118.86 340.817C124.914 345.833 128.506 345.353 128.506 345.353L128.509 345.351Z" fill="#00C7B6"/>
<path d="M130.621 356.082C130.621 356.082 130.886 352.541 125.182 346.979C119.478 341.417 114.921 346.532 120.972 351.549C127.026 356.564 130.618 356.084 130.618 356.084L130.621 356.082Z" fill="#00C7B6"/>
<path d="M190.498 325.854C140.056 350.34 150.157 410.758 150.157 410.758C209.699 380.011 190.498 325.854 190.498 325.854Z" fill="#C2D5FF"/>
<path d="M187.995 333.567L154.946 402.425L187.995 333.567Z" fill="white"/>
<path d="M187.995 333.567L154.946 402.425" stroke="white" stroke-miterlimit="10" stroke-linecap="round" stroke-linejoin="round"/>
<path d="M177.538 354.196L177.677 342.608L177.538 354.196Z" fill="white"/>
<path d="M177.538 354.196L177.677 342.608" stroke="white" stroke-miterlimit="10" stroke-linecap="round" stroke-linejoin="round"/>
<path d="M168.011 374.105L165.642 355.984L168.011 374.105Z" fill="white"/>
<path d="M168.011 374.105L165.642 355.984" stroke="white" stroke-miterlimit="10" stroke-linecap="round" stroke-linejoin="round"/>
<path d="M158.401 374.652L161.066 389.57L158.401 374.652Z" fill="white"/>
<path d="M158.401 374.652L161.066 389.57" stroke="white" stroke-miterlimit="10" stroke-linecap="round" stroke-linejoin="round"/>
<path d="M187.071 346.734L178.118 354.091L187.071 346.734Z" fill="white"/>
<path d="M187.071 346.734L178.118 354.091" stroke="white" stroke-miterlimit="10" stroke-linecap="round" stroke-linejoin="round"/>
<path d="M168.282 373.523L183.902 364.036L168.282 373.523Z" fill="white"/>
<path d="M168.282 373.523L183.902 364.036" stroke="white" stroke-miterlimit="10" stroke-linecap="round" stroke-linejoin="round"/>
<path d="M160.828 389.073L174.135 381.816L160.828 389.073Z" fill="white"/>
<path d="M160.828 389.073L174.135 381.816" stroke="white" stroke-miterlimit="10" stroke-linecap="round" stroke-linejoin="round"/>
<path d="M117.33 425.281C117.33 425.281 74.695 420.698 63.653 391.916C63.653 391.916 61.0738 384.889 68.0788 380.358C75.0837 375.828 51.5943 358.102 56.7452 348.002C61.8962 337.902 73.6409 350.268 70.9645 341.199C68.2881 332.131 64.752 319.467 71.3756 317.501C82.4998 314.204 88.2713 350.268 93.2203 345.528C98.1694 340.788 105.63 339.547 105.63 354.798C105.63 370.049 104.554 374.168 110.527 375.2C116.5 376.231 118.063 385.345 115.678 400.543C112.381 421.566 117.33 425.274 117.33 425.274L117.33 425.281Z" fill="#647BDC"/>
<path d="M79.5767 343.711C79.5767 343.711 83.0754 400.625 117.33 425.288" stroke="white" stroke-linecap="round" stroke-linejoin="round"/>
<path d="M817.152 418.978C817.152 418.978 895.731 413.148 910.921 342.641C910.921 342.641 837.387 335.189 817.152 418.978Z" fill="#647BDC"/>
<path d="M826.103 410.448L902.048 348.124L826.103 410.448Z" fill="white"/>
<path d="M826.103 410.448L902.048 348.124" stroke="white" stroke-miterlimit="10" stroke-linecap="round" stroke-linejoin="round"/>
<path d="M893.902 363.778L879.465 367.49L893.902 363.778Z" fill="white"/>
<path d="M893.902 363.778L879.465 367.49" stroke="white" stroke-miterlimit="10" stroke-linecap="round" stroke-linejoin="round"/>
<path d="M880.864 382.901L857.499 385.475L880.864 382.901Z" fill="white"/>
<path d="M880.864 382.901L857.499 385.475" stroke="white" stroke-miterlimit="10" stroke-linecap="round" stroke-linejoin="round"/>
<path d="M840.296 398.876L859.75 397.65L840.296 398.876Z" fill="white"/>
<path d="M840.296 398.876L859.75 397.65" stroke="white" stroke-miterlimit="10" stroke-linecap="round" stroke-linejoin="round"/>
<path d="M879.419 366.734L885.877 353.301L879.419 366.734Z" fill="white"/>
<path d="M879.419 366.734L885.877 353.301" stroke="white" stroke-miterlimit="10" stroke-linecap="round" stroke-linejoin="round"/>
<path d="M865.227 362.544L858.143 384.958L865.227 362.544Z" fill="white"/>
<path d="M865.227 362.544L858.143 384.958" stroke="white" stroke-miterlimit="10" stroke-linecap="round" stroke-linejoin="round"/>
<path d="M845.993 380.178L840.99 399.021L845.993 380.178Z" fill="white"/>
<path d="M845.993 380.178L840.99 399.021" stroke="white" stroke-miterlimit="10" stroke-linecap="round" stroke-linejoin="round"/>
<path d="M808.429 403.192C808.429 403.192 851.48 370.956 834.302 324.811C834.302 324.811 789.266 347.561 808.429 403.192Z" fill="#FFBC11"/>
<path d="M831.748 331.399L810.984 395.167L831.748 331.399Z" fill="white"/>
<path d="M831.748 331.399L810.984 395.167" stroke="white" stroke-miterlimit="10" stroke-linecap="round" stroke-linejoin="round"/>
<path d="M832.356 343.304L825.421 350.742L832.356 343.304Z" fill="white"/>
<path d="M832.356 343.304L825.421 350.742" stroke="white" stroke-miterlimit="10" stroke-linecap="round" stroke-linejoin="round"/>
<path d="M818.966 368.653L831.454 358.584L818.966 368.653Z" fill="white"/>
<path d="M818.966 368.653L831.454 358.584" stroke="white" stroke-miterlimit="10" stroke-linecap="round" stroke-linejoin="round"/>
<path d="M825.438 375.718L814.696 383.579L825.438 375.718Z" fill="white"/>
<path d="M825.438 375.718L814.696 383.579" stroke="white" stroke-miterlimit="10" stroke-linecap="round" stroke-linejoin="round"/>
<path d="M824.367 340.092L825.593 350.189L824.367 340.092Z" fill="white"/>
<path d="M824.367 340.092L825.593 350.189" stroke="white" stroke-miterlimit="10" stroke-linecap="round" stroke-linejoin="round"/>
<path d="M815.431 353.032L819.6 368.527L815.431 353.032Z" fill="white"/>
<path d="M815.431 353.032L819.6 368.527" stroke="white" stroke-miterlimit="10" stroke-linecap="round" stroke-linejoin="round"/>
<path d="M810.85 370.24L814.905 382.914L810.85 370.24Z" fill="white"/>
<path d="M810.85 370.24L814.905 382.914" stroke="white" stroke-miterlimit="10" stroke-linecap="round" stroke-linejoin="round"/>
</g>
</g>
<defs>
<linearGradient id="paint0_linear_1085_6138" x1="484.5" y1="0" x2="484.5" y2="456" gradientUnits="userSpaceOnUse">
<stop stop-color="#BFC6F1"/>
<stop offset="1" stop-color="#BFC6F1" stop-opacity="0"/>
</linearGradient>
<clipPath id="clip0_1085_6138">
<rect width="969" height="456" fill="white"/>
</clipPath>
<clipPath id="clip1_1085_6138">
<rect width="856.106" height="401.965" fill="white" transform="translate(56 27)"/>
</clipPath>
</defs>
</svg>
